PathFileType	4	(X/Y/Z)	6_coords_data.trc
DataRate	CameraRate	NumFrames	NumMarkers	Units	OrigDataRate	OrigDataStartFrame	OrigNumFrames
30.0	30.0	8	21	m	30.0	57	66
Frame#	Time	THUMB_TIP	THUMB_IP	THUMB_MCP	THUMB_CMC	INDEX_TIP	INDEX_DIP	INDEX_PIP	INDEX_MCP	MIDDLE_TIP	MIDDLE_DIP	MIDDLE_PIP	MIDDLE_MCP	RING_TIP	RING_DIP	RING_PIP	RING_MCP	PINKY_TIP	PINKY_DIP	PINKY_PIP	PINKY_MCP	WRIST
X1	Y1	Z1	X2	Y2	Z2	X3	Y3	Z3	X4	Y4	Z4	X5	Y5	Z5	X6	Y6	Z6	X7	Y7	Z7	X8	Y8	Z8	X9	Y9	Z9	X10	Y10	Z10	X11	Y11	Z11	X12	Y12	Z12	X13	Y13	Z13	X14	Y14	Z14	X15	Y15	Z15	X16	Y16	Z16	X17	Y17	Z17	X18	Y18	Z18	X19	Y19	Z19	X20	Y20	Z20	X21	Y21	Z21
55	1.8666666666666587	0.5233384096402577	0.002426863742071239	-0.15583047367847214	0.514448752496696	-0.004596255476057576	-0.13583923078769947	0.49025239815802346	-0.00973483461973268	-0.11694607220842539	0.4788356962853203	-0.02079277310510863	-0.07526549022108439	0.5793555288060557	0.05956709107291547	-0.13306865011180669	0.5629103341685912	0.05742471204687305	-0.12579089046719877	0.5406159142696638	0.05118977661978763	-0.11598812276667708	0.5071376320420856	0.03013204344558862	-0.10019532103123874	0.5982123230732322	0.06315511003768193	-0.10568750537902674	0.5813954679297765	0.05952478973151765	-0.1000293999046937	0.554775122466793	0.05206018376114352	-0.09080733857663552	0.5173739896005395	0.030847170301634752	-0.07867015433614732	0.605640374546097	0.04763065186629345	-0.07684593077567121	0.5885791158980349	0.04363680589435692	-0.0726076943858059	0.5651080419278559	0.03698403608546519	-0.0676047632893105	0.5282546148015889	0.021093791881307333	-0.06270110320921049	0.6006287518077384	0.010320475763008874	-0.059907834574415446	0.5855202480969911	0.013194132219521482	-0.052392835293492125	0.5653865172727883	0.014117149758002157	-0.04651125891277506	0.5305278917680479	0.004977718305835599	-0.048004735277303846	0.462283081001861	-0.023011742144276925	-0.051989820119430985
56	1.8999999999999915	0.5234355401804518	0.0026633683466950053	-0.15570230587347622	0.514523752239143	-0.004406843018747497	-0.1357375332242044	0.49029254930442456	-0.009635855145092243	-0.11691397786080313	0.4788370563198381	-0.02075829153939268	-0.0752612097758987	0.5792054962206795	0.059750424742663344	-0.13300267141654729	0.5627573799021948	0.05759219384083658	-0.1257362067363883	0.5404559415289844	0.05134754537834452	-0.115955611403496	0.5069782441037805	0.030256859738412745	-0.10020560034495805	0.5980207393576071	0.0633146797310854	-0.10584706741165881	0.5812137505709545	0.059674241697585284	-0.10016619258029925	0.554613345050037	0.05220088155143665	-0.09089382156481982	0.5172443943584236	0.030970887979083095	-0.07868739628443604	0.6055749459140988	0.0476036096003678	-0.07707606970258923	0.5885173519812209	0.043618595335115695	-0.07281483155777893	0.5650407218270274	0.037043325405416994	-0.06773608752457454	0.5281817890885832	0.021187563977240753	-0.06276268417117478	0.6005675134404131	0.010406001410460108	-0.060265324018263816	0.5854792921253238	0.013270673111513531	-0.0527062742372352	0.5653675588444267	0.014181561300669054	-0.04674804579709383	0.5304963570453781	0.005062547709751342	-0.04806194351712476	0.4622830810018609	-0.023011742144276925	-0.051989820119430985
58	1.933333333333334	0.5236091494333077	0.0027866768364381844	-0.15555476206932511	0.5146461964413241	-0.004305047555638097	-0.1356205472914533	0.49036413159441505	-0.009593101026658113	-0.11687920749788103	0.47885306999494004	-0.020738392050739685	-0.07524787375943809	0.5791519286846355	0.059717276355678583	-0.13296021124577406	0.5626931671157656	0.05759561998238494	-0.12570709178910222	0.5403748074419998	0.051393574652299434	-0.11593799315125441	0.5068554648054504	0.030338399615996048	-0.10022909861967687	0.5978792958541355	0.06336359138260461	-0.10601456225157391	0.5810779420577934	0.059746679422064464	-0.10030207956189852	0.5544866670940415	0.05230764948818856	-0.09097606865449298	0.5171497646587296	0.03105734543647154	-0.07870707459444126	0.6055334062929738	0.04752428285203314	-0.07728043418910818	0.5884765638612816	0.04357375468259361	-0.07298422033934586	0.564993712963081	0.03707746888915997	-0.06783310749036688	0.5281251629294308	0.02126218173623784	-0.0628024470280772	0.6005070382781511	0.010415112047972075	-0.06059207904267913	0.5854467591948525	0.013293437256415852	-0.05298266132989773	0.5653573686977603	0.01421170417746298	-0.046950647212120784	0.5304705095986478	0.005129185319853735	-0.04809010515335563	0.4622830810018609	-0.023011742144276925	-0.051989820119430985
59	1.9666666666666672	0.5238079861929014	0.002870796552560728	-0.15540301792347785	0.5147873925587727	-0.004234442169369301	-0.13549963948683297	0.4904504166393563	-0.00956894027212185	-0.11684287843113292	0.4788719935638883	-0.02072471728670955	-0.07523303875003987	0.5791160678976772	0.05963017238287882	-0.1329354624973822	0.5626464874535267	0.05756091408362096	-0.1256917693726971	0.540309155492766	0.05142061487503402	-0.11592702874614662	0.5067480015095464	0.030404615554915138	-0.10025498963531645	0.597758098559524	0.0633626159654791	-0.10618423022431533	0.5809609463732609	0.059787404888212436	-0.10043326994063191	0.5543750118753735	0.05240113322301021	-0.0910502732038811	0.5170673143324019	0.031131605537447316	-0.07872587394569286	0.6054950080627941	0.04742749051345996	-0.07748952351134149	0.5884389970723317	0.04352211132572692	-0.07314895874471863	0.5649500222539129	0.03711152213685753	-0.06791900776681785	0.5280747647616666	0.02132948199785234	-0.06283339787897088	0.6004412069701757	0.010382253418605769	-0.06091119765883122	0.5854149216114228	0.013288128537900401	-0.05324525752676683	0.5653502063205426	0.014229247363212072	-0.047135141762515015	0.5304480940474836	0.005186530025872993	-0.04811252246407207	0.462283081001861	-0.023011742144276925	-0.051989820119430985
60	2.000000000000001	0.524022332797005	0.002928567037624563	-0.15525029949720848	0.5149421194317751	-0.004185987062664043	-0.13537738211711633	0.49054894086553136	-0.009557505062553595	-0.11680483157034963	0.47889252795451764	-0.02071604778080882	-0.07521751424339485	0.5790890327629304	0.05953048198046629	-0.13291872276568836	0.5626097223563283	0.0575153458483223	-0.1256819033751148	0.5402541958681735	0.05144132681110114	-0.11591734700153157	0.5066563558301369	0.030457820733712504	-0.10028041279182476	0.5976542545996675	0.06334922849550673	-0.10633393921511208	0.5808607886215235	0.0598185745235853	-0.10054481294498545	0.5542784102468294	0.05248524593330295	-0.09111035473417387	0.5169975045983961	0.031193789506488878	-0.07874282150164506	0.605457560893771	0.047339510984631517	-0.07768189303356651	0.5884032544034579	0.04347828088848682	-0.07329537593236932	0.5649097585838582	0.0371466013692906	-0.06799014571675703	0.5280306716911999	0.021389511513652648	-0.06285517704644235	0.6003750577306736	0.010319969298508092	-0.06120677827265947	0.5853852549660944	0.013261988879121223	-0.05348341541271925	0.5653456318934449	0.014236079744429864	-0.047296600958393324	0.5304290232726098	0.005235057981917812	-0.048130567774405296	0.462283081001861	-0.023011742144276925	-0.05198982011943099
61	2.033333333333334	0.5242424678469692	0.002972846205329893	-0.15509988493749316	0.5151051310605826	-0.004150637191277617	-0.13525637061289833	0.4906572061094634	-0.009552915728410882	-0.11676490360263456	0.4789133759088847	-0.02071116664302486	-0.07520210907740449	0.5790622241272922	0.05945977241481748	-0.1329003918009815	0.5625754069041824	0.05748627483197777	-0.12566919790631256	0.5402051815310805	0.05146834910149789	-0.11590357351976892	0.5065810188420979	0.030500319873214443	-0.10030249894951335	0.5975652010353998	0.0633610986532529	-0.10644161759116957	0.5807756477833468	0.059862396940132734	-0.100621824818305	0.5541968815224358	0.05256389561005692	-0.09115025618461285	0.5169407928360321	0.031244010924190047	-0.0787569396885264	0.6054193189942728	0.047286785889576466	-0.0778361612318681	0.5883682120682846	0.04345694306046555	-0.07340986972510732	0.5648730337784413	0.03718382860930436	-0.06804287697207372	0.5279929529310734	0.021442317673506683	-0.06286742490005326	0.6003138951850958	0.010240765776343808	-0.06146304527310542	0.5853594178231238	0.0132222757959789	-0.053686529032970644	0.5653432818966692	0.014234100767168578	-0.04743012976491147	0.5304132030529844	0.005275243621619352	-0.04814561674564787	0.462283081001861	-0.023011742144276925	-0.051989820119430985
62	2.0666666666666678	0.5244586656795597	0.0030165151017651493	-0.1549551280025872	0.5152711579925986	-0.004119340791851611	-0.13513924388989704	0.49077267920924295	-0.009549287078058466	-0.11672294076928191	0.4789332421409662	-0.020708858494609572	-0.0751876341530402	0.5790272480782757	0.05945969971361709	-0.13287093666447727	0.5625361845871348	0.05750108833792689	-0.12564538018693303	0.5401573585900689	0.051514320742153674	-0.11588031010283999	0.5065224743257517	0.030534409506015714	-0.10031837002296036	0.5974885576800322	0.06343598825977426	-0.10648522352677395	0.5807037592506904	0.05994111862670404	-0.10064943498243775	0.5541304160942284	0.05264098398521633	-0.09116391877586959	0.5168976305622205	0.03128237642962739	-0.07876724640729221	0.6053788235042497	0.04729584445605273	-0.07793099169697014	0.5883329116793166	0.04347279225756362	-0.07347889534308973	0.5648399567100736	0.03722432391517427	-0.06807355639097187	0.5279616706315927	0.021487946918126388	-0.06286977998142984	0.600263271492911	0.010157102076544966	-0.06166436096240863	0.5853392186432551	0.013176253139833283	-0.053844042976692215	0.565342832933137	0.014225212031215406	-0.04753086130843864	0.5304005329213606	0.005307560859083682	-0.04815904795203311	0.4622830810018608	-0.023011742144276925	-0.05198982011943098
63	2.100000000000001	0.524661181264298	0.0030724704472796516	-0.1548194576433211	0.5154349032911962	-0.004083048003905021	-0.1350286933716258	0.4908927908644114	-0.009540741418267884	-0.11667880780724482	0.4789508325220705	-0.020707908317403212	-0.07517490420292525	0.5789756267636373	0.05957176358366101	-0.13282077194572206	0.5624846495917744	0.05758707035943922	-0.12560213878404775	0.5401058776376838	0.05159191062395252	-0.11584209479988408	0.5064812012399711	0.03056237785200333	-0.10032513689755634	0.5974216960720022	0.06361148870865263	-0.10644264661350858	0.5806431798645749	0.06007696273388796	-0.1006126792027237	0.5540789494307696	0.052720408567925814	-0.0911452443725831	0.5168684611860939	0.03130898632050472	-0.07877275541782962	0.6053345304919171	0.04739314355816693	-0.07794504297266246	0.5882963415701732	0.043540465165614606	-0.07348892499054789	0.5648106246841138	0.037269195952740475	-0.06807854017913868	0.5279368807178226	0.021526443168478626	-0.06286187700407914	0.6002288907983908	0.010081380532243167	-0.061795212215632694	0.5853265380642905	0.013131171818444143	-0.05394545705390531	0.5653439543263684	0.014211306826173997	-0.04759394742846896	0.5303909067774366	0.005332484085738165	-0.048172242150936385	0.4622830810018608	-0.023011742144276925	-0.051989820119430985
